<?xml version="1.0" encoding="iso-8859-1"?>
<!-- Generator: Adobe Illustrator 19.0.0, SVG Export Plug-In . SVG Version: 6.00 Build 0)  -->
<svg version="1.1" id="Layer_1" xmlns="http://www.w3.org/2000/svg" xmlns:xlink="http://www.w3.org/1999/xlink" x="0px" y="0px"
	 viewBox="0 0 511.999 511.999" style="enable-background:new 0 0 511.999 511.999;" xml:space="preserve">
<rect x="76.295" y="161.862" style="fill:#D5C9B3;" width="430.084" height="255.659"/>
<rect x="42.063" y="127.641" style="fill:#5EBAE7;" width="430.084" height="261.966"/>
<rect x="7.832" y="93.41" style="fill:#D5C9B3;" width="424.288" height="256.171"/>
<polygon style="fill:#CBBBA0;" points="13.332,97.366 215.972,277.532 296.026,197.477 215.972,245.509 "/>
<g>
	<polygon style="fill:#1D1D1B;" points="477.77,392.194 42.062,392.194 42.062,376.53 462.106,376.53 462.106,127.637 
		477.77,127.637 	"/>
	<polygon style="fill:#1D1D1B;" points="511.999,426.424 76.293,426.424 76.293,410.76 496.335,410.76 496.335,161.867 
		511.999,161.867 	"/>
	<path style="fill:#1D1D1B;" d="M0,85.575v272.389h443.539V85.575H0z M411.425,101.239L221.769,237.791L32.113,101.239H411.425z
		 M15.664,342.3V108.697l206.105,148.395l206.106-148.395V342.3H15.664z"/>
	<rect x="178.978" y="299.508" style="fill:#1D1D1B;" width="17.115" height="15.664"/>
	<rect x="213.209" y="299.508" style="fill:#1D1D1B;" width="17.115" height="15.664"/>
	<rect x="247.441" y="299.508" style="fill:#1D1D1B;" width="17.115" height="15.664"/>
</g>
<g>
</g>
<g>
</g>
<g>
</g>
<g>
</g>
<g>
</g>
<g>
</g>
<g>
</g>
<g>
</g>
<g>
</g>
<g>
</g>
<g>
</g>
<g>
</g>
<g>
</g>
<g>
</g>
<g>
</g>
</svg>
